<svg width="51" height="57" viewBox="0 0 51 57" fill="none" xmlns="http://www.w3.org/2000/svg">
<path d="M51 8.30478C51 6.38678 49.4333 4.8262 47.5077 4.8262C47.0345 4.8262 46.5834 4.92108 46.1715 5.09178C45.8309 3.52688 44.4308 2.35103 42.7593 2.35103C42.2651 2.35103 41.7949 2.45414 41.3683 2.63958C40.9516 1.18298 39.6045 0.113281 38.0104 0.113281C36.4167 0.113281 35.0696 1.18298 34.6525 2.63958C34.2262 2.45414 33.756 2.35103 33.2619 2.35103C31.3363 2.35103 29.77 3.91117 29.77 5.82918V14.5436C28.9745 13.704 27.7844 13.2694 26.5726 13.4822C25.627 13.6485 24.8071 14.1745 24.2643 14.9634C24.206 15.0479 24.1525 15.135 24.1025 15.2234C23.6305 14.9699 23.0912 14.8261 22.5188 14.8261C22.0921 14.8261 21.6845 14.9071 21.3087 15.0523C20.9538 13.5883 19.6285 12.4969 18.0513 12.4969C17.6037 12.4969 17.1766 12.5858 16.786 12.7452C16.3632 11.3839 15.0875 10.3922 13.5838 10.3922C12.0802 10.3922 10.8044 11.3839 10.3816 12.7452C9.99104 12.5858 9.56391 12.4969 9.11634 12.4969C7.26819 12.4969 5.76497 13.9947 5.76497 15.8351V23.8741C5.00509 23.1445 3.91812 22.7767 2.81115 22.9708C1.90425 23.1302 1.11741 23.635 0.596761 24.3919C0.0761133 25.1488 -0.11266 26.0616 0.0652393 26.9619L1.23702 32.8806C1.7033 35.2362 2.85203 37.3773 4.55882 39.0722L6.65098 41.1501V44.6984H5.4718C4.85677 44.6984 4.3583 45.1949 4.3583 45.8075V55.7914C4.3583 56.404 4.85677 56.9005 5.4718 56.9005C6.0864 56.9005 6.5853 56.404 6.5853 55.7914V46.9167H21.12V55.7914C21.12 56.404 21.6184 56.9005 22.2335 56.9005C22.8485 56.9005 23.347 56.404 23.347 55.7914V45.8075C23.347 45.1949 22.8485 44.6984 22.2335 44.6984H21.0839V41.1501L22.3204 39.9222C24.6096 37.6485 25.8702 34.6227 25.8702 31.4028V26.7587C26.5009 28.1347 27.3751 29.3933 28.4673 30.4782L30.7117 32.7073V37.0472H29.3886C28.7735 37.0472 28.2751 37.5437 28.2751 38.1563V55.7914C28.2751 56.404 28.7735 56.9005 29.3886 56.9005C30.0032 56.9005 30.5021 56.404 30.5021 55.7914V43.7019H35.8908C36.5058 43.7019 37.0043 43.2054 37.0043 42.5928C37.0043 41.9802 36.5058 41.4837 35.8908 41.4837H30.5021V39.2654H46.0911V55.7914C46.0911 56.404 46.5895 56.9005 47.2046 56.9005C47.8192 56.9005 48.3181 56.404 48.3181 55.7914V38.1563C48.3181 37.5437 47.8192 37.0472 47.2046 37.0472H45.9123V32.7073L47.2472 31.382C49.6669 28.9783 50.9996 25.7796 50.9996 22.376V21.2239C50.9996 20.6113 50.5011 20.1148 49.8861 20.1148C49.2715 20.1148 48.7726 20.6113 48.7726 21.2239V22.376C48.7726 25.186 47.6726 27.8267 45.6748 29.811L44.0128 31.4617C43.8032 31.6697 43.6853 31.9526 43.6853 32.2472V37.0472H32.9387V32.2472C32.9387 31.9521 32.8208 31.6697 32.6112 31.4617L30.0397 28.9077C28.5504 27.4281 27.5478 25.5595 27.1411 23.5041L25.8954 17.2129C25.8262 16.8641 25.8993 16.5106 26.1011 16.2173C26.3029 15.9244 26.6079 15.7286 26.9593 15.667C27.6409 15.547 28.3029 15.9777 28.4673 16.6466L29.1111 19.2613C29.2898 19.9887 29.9614 20.4514 30.7082 20.3618C31.4551 20.2721 31.997 19.6629 31.997 18.9138V5.82918C31.997 5.13424 32.5642 4.56928 33.2619 4.56928C33.9117 4.56928 34.448 5.05972 34.5185 5.68881V12.98C34.5185 13.0242 34.5215 13.0675 34.5268 13.1104V13.8227C34.5268 14.4353 35.0252 14.9318 35.6403 14.9318C36.2553 14.9318 36.7538 14.4353 36.7538 13.8227V5.82918C36.7538 5.75249 36.7503 5.67624 36.7455 5.60042V3.59143C36.7455 2.89693 37.3131 2.33153 38.0104 2.33153C38.708 2.33153 39.2752 2.89693 39.2752 3.59143V5.60042C39.2704 5.67624 39.267 5.75249 39.267 5.82918V12.98C39.267 13.0242 39.2704 13.0675 39.2752 13.1104V13.8227C39.2752 14.4353 39.7741 14.9318 40.3887 14.9318C41.0038 14.9318 41.5022 14.4353 41.5022 13.8227V5.68881C41.5727 5.05972 42.109 4.56928 42.7588 4.56928C43.4565 4.56928 44.0237 5.13424 44.0237 5.82918V8.07603C44.0189 8.15185 44.0154 8.22767 44.0154 8.30478V12.98C44.0154 13.0242 44.0189 13.0675 44.0237 13.1104V13.8227C44.0237 14.4353 44.5226 14.9318 45.1372 14.9318C45.7522 14.9318 46.2507 14.4353 46.2507 13.8227V8.16398C46.3211 7.53533 46.8579 7.04445 47.5073 7.04445C48.205 7.04445 48.7726 7.60985 48.7726 8.30478V12.3505C48.7726 12.9631 49.2711 13.4596 49.8861 13.4596C50.5007 13.4596 50.9996 12.9631 50.9996 12.3505V8.30478H51ZM23.6432 31.4028C23.6432 34.0291 22.6149 36.497 20.7481 38.3513L19.1844 39.9045C18.9747 40.1124 18.8569 40.3949 18.8569 40.69V44.6984H8.87798V40.69C8.87798 40.3949 8.76011 40.1124 8.55045 39.9045L6.13164 37.5017C4.73933 36.1187 3.80242 34.3727 3.42227 32.4512L2.25048 26.5326C2.18915 26.2219 2.25396 25.907 2.43404 25.6457C2.61367 25.3845 2.88509 25.2103 3.19783 25.1553C3.80547 25.0491 4.39484 25.4326 4.54142 26.0283L5.14689 28.4883C5.32348 29.2053 5.98506 29.6611 6.72188 29.5727C7.45783 29.4843 7.99197 28.8843 7.99197 28.1456V15.8351C7.99197 15.2178 8.49652 14.7152 9.11634 14.7152C9.69266 14.7152 10.1689 15.1502 10.2324 15.7078V22.5627C10.2324 22.606 10.2355 22.648 10.2403 22.6896V23.356C10.2403 23.9686 10.7392 24.4651 11.3538 24.4651C11.9688 24.4651 12.4673 23.9686 12.4673 23.356V15.8351C12.4673 15.7624 12.4642 15.6904 12.4594 15.6185V13.73C12.4594 13.1126 12.964 12.6104 13.5838 12.6104C14.2041 12.6104 14.7082 13.1126 14.7082 13.73V15.6172C14.7034 15.6896 14.7004 15.7619 14.7004 15.8351V22.5627C14.7004 22.606 14.7034 22.6485 14.7082 22.6905V23.356C14.7082 23.9682 15.2067 24.4651 15.8217 24.4651C16.4367 24.4651 16.9352 23.9682 16.9352 23.356V15.7069C16.9991 15.1497 17.475 14.7152 18.0513 14.7152C18.6716 14.7152 19.1757 15.2178 19.1757 15.8351V17.9464C19.1709 18.0183 19.1678 18.0911 19.1678 18.1643V22.5627C19.1678 22.606 19.1709 22.6485 19.1757 22.6905V23.356C19.1757 23.9682 19.6746 24.4651 20.2892 24.4651C20.9042 24.4651 21.4027 23.9682 21.4027 23.356V18.0361C21.4671 17.4789 21.9429 17.0444 22.5192 17.0444C23.139 17.0444 23.6432 17.5469 23.6432 18.1643V31.4028Z" fill="black"/>
<path d="M49.9149 15.666C49.6292 15.666 49.3494 15.7822 49.1477 15.9843C48.9455 16.1861 48.8298 16.4659 48.8298 16.7511C48.8298 17.0377 48.9455 17.3166 49.1477 17.5196C49.3503 17.7214 49.6292 17.8362 49.9149 17.8362C50.2001 17.8362 50.4799 17.7214 50.6817 17.5196C50.8847 17.3166 51 17.0377 51 16.7511C51 16.4659 50.8847 16.1861 50.6817 15.9843C50.4799 15.7822 50.201 15.666 49.9149 15.666Z" fill="black"/>
<path d="M40.3289 41.3467C39.9961 41.3467 39.6707 41.4822 39.4338 41.7176C39.1984 41.953 39.0639 42.2798 39.0639 42.6126C39.0639 42.9454 39.1984 43.2723 39.4338 43.5077C39.6707 43.7431 39.9961 43.8786 40.3289 43.8786C40.6632 43.8786 40.9886 43.7431 41.2249 43.5077C41.4608 43.2723 41.5958 42.9454 41.5958 42.6126C41.5958 42.2798 41.4608 41.953 41.2249 41.7176C40.9886 41.4822 40.6632 41.3467 40.3289 41.3467Z" fill="black"/>
</svg>
